<?xml version="1.0" encoding="utf-8"?>
<!-- Generator: Adobe Illustrator 23.0.1, SVG Export Plug-In . SVG Version: 6.00 Build 0)  -->
<svg version="1.1" id="Layer_1" xmlns="http://www.w3.org/2000/svg" xmlns:xlink="http://www.w3.org/1999/xlink" x="0px" y="0px"
	 viewBox="0 0 45 53.9" style="enable-background:new 0 0 45 53.9;" xml:space="preserve">
<style type="text/css">
	.st0{fill:#2A2E7F;}
	.st1{fill:none;stroke:#FFFFFF;stroke-width:1.6;stroke-miterlimit:10;}
	.st2{fill:none;stroke:#FFFFFF;stroke-width:0.8;stroke-miterlimit:10;}
	.st3{fill:#FFFFFF;}
</style>
<rect x="7.8" y="13.3" class="st0" width="30.9" height="27.7"/>
<line class="st1" x1="38.7" y1="13.1" x2="7.4" y2="13.1"/>
<line class="st1" x1="38.7" y1="18.7" x2="7.4" y2="18.7"/>
<line class="st1" x1="38.7" y1="24.3" x2="7.4" y2="24.3"/>
<line class="st1" x1="38.7" y1="29.8" x2="7.4" y2="29.8"/>
<line class="st1" x1="38.7" y1="35.4" x2="7.4" y2="35.4"/>
<line class="st2" x1="38.7" y1="40.9" x2="7.4" y2="40.9"/>
<line class="st2" x1="38.7" y1="40.9" x2="38.7" y2="13.1"/>
<line class="st1" x1="33.5" y1="40.9" x2="33.5" y2="13.1"/>
<line class="st1" x1="28.3" y1="40.9" x2="28.3" y2="13.1"/>
<line class="st1" x1="23.1" y1="40.9" x2="23.1" y2="13.1"/>
<line class="st1" x1="17.9" y1="40.9" x2="17.9" y2="13.1"/>
<line class="st1" x1="12.6" y1="40.9" x2="12.6" y2="13.1"/>
<line class="st1" x1="7.4" y1="40.9" x2="7.4" y2="13.1"/>
<rect x="7.4" y="11.3" class="st3" width="10.5" height="7.1"/>
<rect x="28.3" y="35.4" class="st3" width="10.2" height="7.1"/>
</svg>
